<?xml version="1.0" encoding="utf-8"?>
<!-- Generator: Adobe Illustrator 25.0.0, SVG Export Plug-In . SVG Version: 6.00 Build 0)  -->
<svg version="1.1" id="Layer_1" xmlns="http://www.w3.org/2000/svg" xmlns:xlink="http://www.w3.org/1999/xlink" x="0px" y="0px"
	 viewBox="0 0 1500 289" style="enable-background:new 0 0 1500 289;" xml:space="preserve">
<style type="text/css">
	.st0{fill-rule:evenodd;clip-rule:evenodd;fill:#FECF67;}
	.st1{clip-path:url(#SVGID_1_);}
	.st2{clip-path:url(#SVGID_2_);}
	.st3{fill:#FECF67;}
	.st4{fill:#4987C7;}
</style>
<g>
	<g>
		<path class="st0" d="M1407.6,211.4c1.7-3.3,3.3-7.4,5.1-12.3h37.2c1.9,0,3.4-1.6,3.4-3.4c0-1.9-1.5-3.4-3.4-3.4h-44.1
			c-1.9,0-3.8,0-5.4,0h-3.4c-0.3,0-0.6,0.1-0.9,0.2c-1.6,0.1-2.9,0.2-4.3,0.4c-1.8,0.2-3.3,0.7-4.7,1.3l0.7-1.9h-4.9l-4.3,0.1
			c-6.3-0.1-10.7-0.1-14.3,0.6c-1.7,0.3-3.3,0.8-4.7,1.3l0.7-1.9h-4.9l-4.3,0.1c-6.2-0.1-10.6-0.1-14.3,0.6
			c-14.4,2.5-19.2,16.1-23.7,25.6h-35.5c-1.9,0-3.4,1.6-3.4,3.4c0,1.9,1.6,3.4,3.4,3.4h35.5c4.4,9.5,9.2,23,23.7,25.5
			c3.7,0.6,8.1,0.6,14.3,0.6h9.2l-0.7-1.9c1.4,0.6,2.9,1,4.7,1.3c3.6,0.6,8.1,0.6,14.3,0.6h9.2l-0.7-1.9c1.4,0.6,2.9,1,4.7,1.3
			c1.3,0.2,2.8,0.3,4.3,0.4c0.3,0.1,0.6,0.1,0.9,0.1h3.4c1.7,0.1,3.5,0.1,5.4,0h44.1c1.9,0,3.4-1.6,3.4-3.4c0-1.9-1.5-3.4-3.4-3.4
			h-37.2c-1.8-4.8-3.4-8.8-5.1-12.3c-1.4-2.7-3-5.1-4.8-7h31.7c1.9,0,3.4-1.6,3.4-3.4c0-1.9-1.6-3.4-3.4-3.4h-31.7
			c1.8-1.8,3.3-4.2,4.8-7V211.4z M1322.3,225.3L1322.3,225.3c1.3,3.6,2.6,6.6,3.9,9.1c1.7,3.3,3.3,5.6,5.3,7
			c0.7,0.6,1.8,1.2,2.9,1.7c0.9,0.4,2.1,0.7,3.4,1c3.1,0.5,7,0.5,12.5,0.5c-1.3-3.6-2.6-6.6-3.9-9.1c-1.7-3.3-3.4-5.6-5.3-7
			c-0.8-0.6-1.8-1.2-2.9-1.7c-1-0.4-2.1-0.7-3.4-1c-1.7-0.2-3.7-0.4-6.1-0.5C1326.8,225.4,1324.7,225.4,1322.3,225.3L1322.3,225.3z
			 M1405.4,244.5c-1.3-3.6-2.6-6.6-3.9-9.1c-1.7-3.3-3.4-5.6-5.3-7c-0.8-0.6-1.8-1.2-2.9-1.7c-1-0.4-2.1-0.7-3.4-1
			c-1.7-0.2-3.7-0.4-6.1-0.5c-1.9,0.1-4,0.1-6.4,0.1c1.3,3.6,2.6,6.6,3.9,9c1.7,3.3,3.3,5.6,5.3,7c0.7,0.6,1.7,1.2,2.9,1.7
			c0.9,0.4,2.1,0.7,3.4,1C1395.9,244.5,1399.8,244.5,1405.4,244.5L1405.4,244.5z M1377.8,244.5c-1.4-3.6-2.6-6.6-3.9-9.1
			c-1.7-3.3-3.3-5.6-5.3-7c-0.7-0.6-1.8-1.2-2.9-1.7c-0.9-0.4-2.1-0.7-3.4-1c-1.8-0.2-3.8-0.4-6.1-0.5c-1.9,0.1-3.9,0.1-6.3,0.1
			c1.3,3.6,2.6,6.6,3.9,9c1.7,3.3,3.4,5.6,5.3,7c0.7,0.6,1.8,1.2,2.9,1.7c1,0.4,2.1,0.7,3.4,1
			C1368.5,244.5,1372.5,244.5,1377.8,244.5L1377.8,244.5z M1405.4,199.1c-1.3,3.6-2.6,6.6-3.9,9.1c-1.7,3.3-3.4,5.6-5.3,7.1
			c-0.8,0.6-1.8,1.2-2.9,1.7c-1,0.4-2.1,0.7-3.4,1c-1.7,0.2-3.7,0.4-6.1,0.4c-1.9,0-4,0-6.4,0c1.3-3.6,2.6-6.6,3.9-9.1
			c1.7-3.3,3.3-5.6,5.3-7.1c0.7-0.6,1.7-1.1,2.9-1.6c0.9-0.4,2.1-0.7,3.4-1C1395.9,199,1399.8,199,1405.4,199.1L1405.4,199.1z
			 M1377.8,199.1c-1.4,3.6-2.6,6.6-3.9,9.1c-1.7,3.3-3.3,5.6-5.3,7.1c-0.7,0.6-1.8,1.2-2.9,1.7c-0.9,0.4-2.1,0.7-3.4,1
			c-1.8,0.2-3.8,0.4-6.1,0.4c-1.9,0-3.9,0-6.3,0c1.3-3.6,2.6-6.6,3.9-9.1c1.7-3.3,3.4-5.6,5.3-7.1c0.7-0.6,1.8-1.1,2.9-1.6
			c1-0.4,2.1-0.7,3.4-1C1368.5,199,1372.5,199,1377.8,199.1L1377.8,199.1z M1350.3,199.1c-1.3,3.6-2.6,6.6-3.9,9.1
			c-1.7,3.3-3.4,5.6-5.3,7.1c-0.7,0.6-1.8,1.2-2.9,1.7c-1,0.4-2.1,0.7-3.4,1c-1.7,0.2-3.7,0.4-6.1,0.4c-1.9,0-4,0-6.4,0
			c1.3-3.6,2.6-6.6,3.9-9.1c1.7-3.3,3.3-5.6,5.4-7.1c0.7-0.6,1.7-1.1,2.9-1.6c0.9-0.4,2.1-0.7,3.4-1
			C1341,199,1344.9,199,1350.3,199.1z"/>
		<path class="st0" d="M1407.6,56.8c1.7-3.4,3.3-7.4,5.1-12.3h37.2c1.9,0,3.4-1.6,3.4-3.4c0-1.9-1.5-3.4-3.4-3.4h-44.1
			c-1.9,0-3.8,0-5.4,0h-3.4c-0.3,0-0.6,0.1-0.9,0.1c-1.6,0.1-2.9,0.3-4.3,0.4c-1.8,0.2-3.3,0.7-4.7,1.3l0.7-1.9h-9.2
			c-6.3,0-10.7-0.1-14.3,0.6c-1.7,0.2-3.3,0.7-4.7,1.3l0.7-1.9h-9.2c-6.2,0-10.6-0.1-14.3,0.6c-14.4,2.5-19.2,16-23.7,25.5h-35.5
			c-1.9,0-3.4,1.6-3.4,3.4c0,1.9,1.6,3.5,3.4,3.5h35.5c4.4,9.5,9.2,23,23.7,25.5c3.7,0.6,8.1,0.6,14.3,0.6h9.2l-0.7-1.9
			c1.4,0.6,2.9,1.1,4.7,1.4c3.6,0.6,8.1,0.6,14.3,0.6h9.2L1387,95c1.4,0.6,2.9,1.1,4.7,1.4c1.3,0.2,2.8,0.3,4.3,0.4
			c0.3,0.1,0.6,0.1,0.9,0.1h3.4c1.7,0,3.5,0,5.4,0h44.1c1.9,0,3.4-1.6,3.4-3.4c0-1.9-1.5-3.4-3.4-3.4h-37.2
			c-1.8-4.8-3.4-8.9-5.1-12.3c-1.4-2.7-3-5.1-4.8-7h31.7c1.9,0,3.4-1.6,3.4-3.4c0-1.9-1.6-3.4-3.4-3.4h-31.7c1.8-1.9,3.3-4.2,4.8-7
			V56.8z M1322.3,70.7c1.3,3.6,2.6,6.6,3.9,9c1.7,3.3,3.3,5.6,5.3,7.1c0.7,0.6,1.8,1.2,2.9,1.7c0.9,0.4,2.1,0.7,3.4,1
			c3.1,0.5,7,0.5,12.5,0.5c-1.3-3.6-2.6-6.6-3.9-9.1c-1.7-3.3-3.4-5.6-5.3-7.1c-0.8-0.6-1.8-1.1-2.9-1.6c-1-0.4-2.1-0.7-3.4-1
			c-1.7-0.3-3.7-0.4-6.1-0.5C1326.8,70.8,1324.7,70.8,1322.3,70.7L1322.3,70.7z M1405.4,89.9c-1.3-3.6-2.6-6.6-3.9-9.1
			c-1.7-3.3-3.4-5.6-5.3-7.1c-0.8-0.6-1.8-1.1-2.9-1.6c-1-0.4-2.1-0.7-3.4-1c-1.7-0.3-3.7-0.4-6.1-0.5c-1.9,0.1-4,0.1-6.4,0.1
			c1.3,3.6,2.6,6.6,3.9,9c1.7,3.3,3.3,5.6,5.3,7.1c0.7,0.6,1.7,1.2,2.9,1.7c0.9,0.4,2.1,0.7,3.4,1C1395.9,90,1399.8,90,1405.4,89.9
			L1405.4,89.9z M1377.8,89.9c-1.4-3.6-2.6-6.6-3.9-9.1c-1.7-3.3-3.3-5.6-5.3-7.1c-0.7-0.6-1.8-1.1-2.9-1.6c-0.9-0.4-2.1-0.7-3.4-1
			c-1.8-0.3-3.8-0.4-6.1-0.5c-1.9,0.1-3.9,0.1-6.3,0.1c1.3,3.6,2.6,6.6,3.9,9c1.7,3.3,3.4,5.6,5.3,7.1c0.7,0.6,1.8,1.2,2.9,1.7
			c1,0.4,2.1,0.7,3.4,1C1368.5,90,1372.5,90,1377.8,89.9L1377.8,89.9z M1405.4,44.5c-1.3,3.6-2.6,6.6-3.9,9
			c-1.7,3.3-3.4,5.6-5.3,7.1c-0.8,0.6-1.8,1.2-2.9,1.7c-1,0.4-2.1,0.8-3.4,1c-1.7,0.2-3.7,0.4-6.1,0.4c-1.9,0-4,0-6.4,0
			c1.3-3.6,2.6-6.6,3.9-9c1.7-3.2,3.3-5.6,5.3-7.1c0.7-0.6,1.7-1.2,2.9-1.7c0.9-0.4,2.1-0.7,3.4-0.9
			C1395.9,44.4,1399.8,44.4,1405.4,44.5L1405.4,44.5z M1377.8,44.5c-1.4,3.6-2.6,6.6-3.9,9c-1.7,3.3-3.3,5.6-5.3,7.1
			c-0.7,0.6-1.8,1.2-2.9,1.7c-0.9,0.4-2.1,0.8-3.4,1c-1.8,0.2-3.8,0.4-6.1,0.4c-1.9,0-3.9,0-6.3,0c1.3-3.6,2.6-6.6,3.9-9
			c1.7-3.2,3.4-5.6,5.3-7.1c0.7-0.6,1.8-1.2,2.9-1.7c1-0.4,2.1-0.7,3.4-0.9C1368.5,44.4,1372.5,44.4,1377.8,44.5L1377.8,44.5z
			 M1350.3,44.5c-1.3,3.6-2.6,6.6-3.9,9c-1.7,3.3-3.4,5.6-5.3,7.1c-0.7,0.6-1.8,1.2-2.9,1.7c-1,0.4-2.1,0.8-3.4,1
			c-1.7,0.2-3.7,0.4-6.1,0.4c-1.9,0-4,0-6.4,0c1.3-3.6,2.6-6.6,3.9-9c1.7-3.2,3.3-5.6,5.4-7.1c0.7-0.6,1.7-1.2,2.9-1.7
			c0.9-0.4,2.1-0.7,3.4-0.9C1341,44.4,1344.9,44.4,1350.3,44.5z"/>
		<g>
			<defs>
				<rect id="SVGID_5_" x="1276.5" y="110.6" width="204.4" height="67"/>
			</defs>
			<clipPath id="SVGID_1_">
				<use xlink:href="#SVGID_5_"  style="overflow:visible;"/>
			</clipPath>
			<g class="st1">
				<path class="st0" d="M1325.3,147.9c4,0,7.1,0.1,9.5,0.5c1.3,0.2,2.4,0.6,3.4,1c1.2,0.5,2.2,1.1,2.9,1.7c1.9,1.4,3.7,3.8,5.3,7.1
					c1.3,2.4,2.6,5.5,3.9,9.1c-5.4,0.1-9.4,0.1-12.5-0.5c-1.3-0.2-2.4-0.6-3.4-1c-1.2-0.5-2.2-1.1-2.9-1.6c-2-1.5-3.7-3.9-5.3-7.1
					c-1.3-2.5-2.6-5.6-3.9-9.1L1325.3,147.9L1325.3,147.9z M1314.9,147.9c1.8,4.8,3.4,8.8,5.2,12.3c2.2,4.1,4.4,7.3,7.4,9.3
					c1.2,0.9,2.6,1.8,4.4,2.5c1.4,0.6,3.1,1.1,4.9,1.4c3.7,0.6,8.1,0.6,14.3,0.6h9.2l-0.7-1.9c1.4,0.6,2.9,1.1,4.7,1.3
					c3.6,0.6,8.1,0.6,14.3,0.6h9.2l-0.7-1.9c1.4,0.6,2.9,1.1,4.7,1.3c3.7,0.6,8.1,0.6,14.3,0.6h9.2l-0.7-1.9c1.4,0.6,3,1.1,4.8,1.3
					c1.3,0.2,2.8,0.4,4.3,0.4c0.3,0.1,0.6,0.2,0.9,0.2h3.4c1.8,0,3.6,0,5.6,0h44.1c1.9,0,3.4-1.6,3.4-3.4c0-1.9-1.6-3.4-3.4-3.4
					h-37.2c-1.8-4.8-3.4-8.9-5.2-12.3c-1.4-2.8-3-5.2-4.8-7.1h31.8c1.9,0,3.4-1.6,3.4-3.4c0-1.9-1.6-3.4-3.4-3.4h-31.8
					c1.8-1.9,3.3-4.2,4.8-7c1.8-3.4,3.4-7.4,5.2-12.3h37.2c1.9,0,3.4-1.6,3.4-3.4c0-1.9-1.6-3.4-3.4-3.4h-44.1c-2,0-3.8,0-5.4,0
					h-3.4c-0.2,0-0.6,0.1-0.9,0.1c-1.6,0.1-3,0.2-4.3,0.5c-1.8,0.2-3.3,0.7-4.8,1.3l0.7-1.9h-9.2c-6.2,0-10.6-0.1-14.3,0.6
					c-1.8,0.2-3.3,0.7-4.7,1.3l0.7-1.9h-9.2c-6.3,0-10.7-0.1-14.3,0.6c-1.8,0.2-3.3,0.7-4.7,1.3l0.7-1.9h-9.2
					c-6.2,0-10.6-0.1-14.3,0.6c-1.8,0.2-3.4,0.8-4.9,1.4c-1.8,0.7-3.3,1.6-4.4,2.5c-2.9,2.2-5.2,5.3-7.4,9.4
					c-1.8,3.3-3.4,7.4-5.1,12.2h-35c0,1.2,0,2.3,0,3.4c0,1.2,0,2.2,0,3.4h35L1314.9,147.9z M1349.8,141c1.3-3.6,2.6-6.6,3.9-9
					c1.7-3.3,3.4-5.6,5.3-7.1c0.7-0.6,1.8-1.2,2.9-1.7c1-0.4,2.1-0.8,3.4-0.9c3-0.6,7-0.6,12.5-0.6c-1.4,3.6-2.6,6.6-3.9,9.1
					c-1.7,3.3-3.3,5.6-5.3,7.1c-0.7,0.6-1.8,1.2-2.9,1.7c-0.9,0.4-2.1,0.7-3.4,0.9c-1.8,0.3-3.8,0.4-6.1,0.5
					C1354.4,140.9,1352.4,141,1349.8,141L1349.8,141z M1408.8,157c-1.3-2.5-2.6-5.6-3.9-9.1c5.4,0,9.4,0,12.5,0.5
					c1.3,0.2,2.4,0.6,3.4,1c1.2,0.5,2.2,1.1,2.9,1.7c2,1.4,3.7,3.8,5.3,7.1c1.3,2.4,2.6,5.5,3.9,9.1c-5.4,0.1-9.4,0.1-12.5-0.5
					c-1.3-0.2-2.4-0.6-3.4-1c-1.2-0.5-2.1-1.1-2.9-1.6C1412.2,162.6,1410.4,160.3,1408.8,157L1408.8,157z M1381.3,132
					c1.7-3.3,3.3-5.6,5.3-7.1c0.7-0.6,1.8-1.2,2.9-1.7c0.9-0.4,2.1-0.8,3.4-0.9c3.1-0.6,7-0.6,12.5-0.6c-1.3,3.6-2.6,6.6-3.9,9.1
					c-1.7,3.3-3.4,5.6-5.3,7.1c-0.8,0.6-1.8,1.2-2.9,1.7c-1,0.4-2.1,0.7-3.4,0.9c-1.7,0.3-3.7,0.4-6.1,0.5c-1.9-0.1-4,0-6.4,0
					C1378.6,137.4,1379.8,134.4,1381.3,132L1381.3,132z M1404.8,141c1.3-3.6,2.6-6.6,3.9-9c1.7-3.3,3.4-5.6,5.3-7.1
					c0.7-0.6,1.8-1.2,2.9-1.7c1-0.4,2.1-0.8,3.4-0.9c3-0.6,7-0.6,12.5-0.6c-1.4,3.6-2.7,6.6-3.9,9.1c-1.7,3.3-3.3,5.6-5.3,7.1
					c-0.7,0.6-1.8,1.2-2.9,1.7c-0.9,0.4-2.1,0.7-3.4,0.9c-1.8,0.3-3.8,0.4-6.1,0.5C1409.3,140.9,1407.2,141,1404.8,141z
					 M1346.4,130.8c-1.7,3.3-3.4,5.6-5.3,7.1c-0.7,0.6-1.8,1.2-2.9,1.7c-1,0.4-2.1,0.7-3.4,0.9c-1.7,0.3-3.7,0.4-6.1,0.5
					c-1.9-0.1-4,0-6.4,0c1.3-3.6,2.6-6.6,3.9-9c1.7-3.3,3.3-5.6,5.4-7.1c0.7-0.6,1.7-1.2,2.9-1.7c0.9-0.4,2.1-0.8,3.4-0.9
					c3.1-0.6,7-0.6,12.5-0.6C1349,125.3,1347.8,128.3,1346.4,130.8z M1349.8,147.8c5.4,0,9.4,0,12.5,0.5c1.3,0.3,2.4,0.6,3.4,1
					c1.2,0.5,2.2,1.1,2.9,1.7c1.9,1.4,3.6,3.8,5.3,7.1c1.3,2.4,2.6,5.5,3.9,9.1c-5.4,0.1-9.4,0.1-12.5-0.5c-1.3-0.2-2.4-0.6-3.4-1
					c-1.2-0.5-2.1-1.1-2.9-1.6c-1.9-1.5-3.7-3.8-5.3-7.1C1352.4,154.5,1351.1,151.4,1349.8,147.8L1349.8,147.8z M1381.3,156.9
					c-1.3-2.5-2.6-5.6-3.9-9.1c5.4,0,9.4,0,12.5,0.5c1.3,0.3,2.4,0.6,3.4,1c1.2,0.5,2.1,1.1,2.9,1.7c1.9,1.4,3.7,3.8,5.3,7.1
					c1.3,2.4,2.6,5.5,3.9,9.1c-5.4,0.1-9.4,0.1-12.5-0.5c-1.3-0.2-2.4-0.6-3.4-1c-1.2-0.5-2.2-1.1-2.9-1.6
					C1384.7,162.6,1383,160.2,1381.3,156.9L1381.3,156.9z"/>
			</g>
		</g>
		<g>
			<defs>
				<rect id="SVGID_7_" x="1265.5" y="8" width="20.6" height="272.9"/>
			</defs>
			<clipPath id="SVGID_2_">
				<use xlink:href="#SVGID_7_"  style="overflow:visible;"/>
			</clipPath>
			<g class="st2">
				<path class="st3" d="M1265.6,12.1c-0.2-1.9,1-3.7,2.9-4c1.8-0.2,3.6,1,3.9,2.9c7.3,44.2,10.9,88.9,10.9,133.5
					c0,44.6-3.6,89.3-10.9,133.6c-0.3,1.9-2.1,3.2-3.9,2.9c-1.9-0.3-3.2-2.1-2.9-4c7.2-43.8,10.7-88.1,10.7-132.4
					C1276.3,100.3,1272.7,55.9,1265.6,12.1L1265.6,12.1z"/>
			</g>
		</g>
	</g>
	<g>
		<g>
			<g transform="translate(25.236197, 187.174764)">
				<g>
					<path class="st4" d="M61.3,46.7c-20.5,0-39.2-7.1-55.7-21c-0.2-0.2-0.4-0.3-0.6-0.4c0,0.3,0,0.7,0,1.3v12.1
						c0,3.5-2.1,5.6-5.6,5.6c-3.5,0-5.6-2.1-5.6-5.6V-7.4c0-3.5,2.1-5.6,5.6-5.6C3-13.1,5-11,5-7.4V10c4.1,4.6,9,8.8,14.7,12.5
						c13.2,8.6,27.9,13,43.7,13c15.7,0,28-3.5,36.6-10.3c8.6-6.9,12.7-15.6,12.7-26.5c0-5.8-1.8-11-5.4-15.3
						c-3.7-4.4-8.3-7.9-13.8-10.4c-6.4-2.9-19-6.8-37.4-11.9c-18.6-5.1-31.6-9.5-38.8-13c-7.3-3.6-13.1-8.3-17.3-13.8
						C-4.1-71.4-6.2-78-6.2-85.4c0-14.1,4.7-25.5,14-33.9c9.3-8.4,24-12.7,43.8-12.7c19.7,0,38,7.1,54.5,21.1
						c0.2,0.2,0.4,0.3,0.6,0.4c0-0.3,0-0.7,0-1.4V-124c0-3.5,2.1-5.6,5.6-5.6c3.5,0,5.6,2.1,5.6,5.6v46.2c0,3.5-2.1,5.6-5.6,5.6
						c-3.5,0-5.6-2.1-5.6-5.6v-16.2c-8.6-9.7-19.3-17.2-32-22.5c-6.9-2.8-14.7-4.3-23.1-4.3c-15.9,0-27.8,3.3-35.4,9.8
						C8.7-104.6,5-96.9,5-87.6c0,5.8,1.8,10.9,5.4,15.3c3.7,4.4,8.3,7.9,13.9,10.4c6.3,2.8,18.9,6.8,37.4,11.9
						c18.6,5.1,31.7,9.5,38.8,13c7.3,3.6,13.1,8.3,17.3,13.8c4.2,5.7,6.4,12.5,6.4,20.3c0,15.1-5.4,27.3-16,36.2
						C97.5,42.2,81.8,46.7,61.3,46.7z"/>
					<path class="st4" d="M18.6,24.1C32.2,33,47.2,37.4,63.4,37.4c16.3,0,28.9-3.6,37.9-10.8c9-7.2,13.5-16.6,13.5-28.1
						c0-6.3-1.9-11.8-5.8-16.5c-3.9-4.7-8.7-8.3-14.5-10.9c-6.5-2.9-19.1-6.9-37.7-12c-18.6-5.1-31.4-9.4-38.5-12.9
						c-7-3.5-12.5-7.9-16.5-13.2c-3.9-5.3-5.9-11.5-5.9-18.5c0-13.6,4.4-24.4,13.3-32.5c8.9-8.1,23.1-12.2,42.5-12.2
						c19.3,0,37,6.9,53.2,20.6c2.6,2.1,3.9,1.3,3.9-2.5V-124c0-2.4,1.2-3.6,3.7-3.6c2.4,0,3.6,1.2,3.6,3.6v46.2
						c0,2.4-1.2,3.6-3.6,3.6c-2.5,0-3.7-1.2-3.7-3.6v-17c-8.9-10.2-20-18.1-33.2-23.6c-7.1-2.9-15.1-4.4-23.9-4.4
						c-16.5,0-28.7,3.4-36.7,10.2C7-105.8,3.1-97.4,3.1-87.6C3.1-81.3,5-75.8,8.9-71c3.9,4.7,8.8,8.3,14.6,10.9
						c6.5,2.9,19,6.9,37.6,12c18.6,5.1,31.4,9.4,38.5,12.9c7.1,3.5,12.6,7.9,16.5,13.2c4,5.3,6,11.7,6,19.2
						c0,14.6-5.1,26.1-15.3,34.7c-10.2,8.6-25.3,12.9-45.4,12.9c-20,0-38.2-6.8-54.4-20.6c-2.6-2.1-3.9-1.3-3.9,2.4v12.1
						c0,2.5-1.2,3.7-3.6,3.7c-2.5,0-3.7-1.2-3.7-3.7V-7.4c0-2.4,1.2-3.7,3.7-3.7c2.4,0,3.6,1.2,3.6,3.7v18.2
						C7.4,15.8,12.6,20.2,18.6,24.1z"/>
				</g>
			</g>
		</g>
		<g>
			<g transform="translate(58.449316, 187.174764)">
				<g>
					<path class="st4" d="M233.1,46.7c-3.5,0-5.6-2.1-5.6-5.6c0-3.5,2.1-5.6,5.6-5.6h14.5c0.5,0,0.8-0.1,1-0.1
						c-0.1-0.1-17.6-45.8-17.6-45.8c-0.4-1-1.3-2.2-4-2.2H158c-2.7,0-3.6,1.2-4,2.2l-17.2,44.8c-0.2,0.5-0.4,0.8-0.4,0.9
						c0,0,0.5,0,1,0H152c3.5,0,5.6,2.1,5.6,5.6c0,3.5-2.1,5.6-5.6,5.6h-46.2c-3.5,0-5.6-2.1-5.6-5.6c0-3.5,2.1-5.6,5.6-5.6h15.8
						c0.7,0,1.9-0.3,3.1-2.6l60.6-157.5c0.8-3.1,3.4-4.9,7.2-4.9c3.8,0,6.4,1.8,7.3,5.1l60.6,157.6c1,2.1,2.2,2.4,3,2.4h15.8
						c3.5,0,5.6,2.1,5.6,5.6c0,3.5-2.1,5.6-5.6,5.6H233.1z M160.4-23.8h64.1c0.6,0,1-0.1,1.2-0.1c-0.1-0.1-33.2-86.2-33.2-86.2
						l-32.8,85.4c-0.2,0.5-0.3,0.8-0.4,0.9c0,0,0,0,0.1,0C159.5-23.8,159.9-23.8,160.4-23.8z"/>
					<path class="st4" d="M194-111.9c-0.3-0.9-0.8-1.4-1.4-1.4c-0.7,0-1.2,0.5-1.5,1.4l-33.2,86.4c-1.3,2.5-0.4,3.7,2.6,3.7h64.1
						c2.9,0,3.8-1.2,2.7-3.7L194-111.9z M232.8-11.1c-1-2.3-2.9-3.4-5.8-3.4H158c-3,0-4.9,1.2-5.8,3.4L135,33.8
						c-1.3,2.5-0.5,3.7,2.4,3.7H152c2.4,0,3.6,1.2,3.6,3.6c0,2.5-1.2,3.7-3.6,3.7h-46.2c-2.4,0-3.6-1.2-3.6-3.7
						c0-2.4,1.2-3.6,3.6-3.6h15.8c1.9,0,3.6-1.2,4.9-3.7L187.1-124c0.6-2.4,2.4-3.7,5.3-3.7c2.9,0,4.7,1.2,5.4,3.7l60.7,157.8
						c1.1,2.5,2.8,3.7,4.9,3.7h15.8c2.4,0,3.7,1.2,3.7,3.6c0,2.5-1.2,3.7-3.7,3.7h-46.1c-2.5,0-3.7-1.2-3.7-3.7
						c0-2.4,1.2-3.6,3.7-3.6h14.5c2.7,0,3.6-1.2,2.5-3.7L232.8-11.1z"/>
				</g>
			</g>
		</g>
		<g>
			<g transform="translate(95.668289, 187.174764)">
				<g>
					<path class="st4" d="M420.7,46.7c-3.5,0-5.6-2.1-5.6-5.6c0-3.5,2.1-5.6,5.6-5.6h14.5c1.3,0,1.7-0.3,1.7-1.7v-139.1L370.7,41.8
						c-2.1,4-5,4.8-7.1,4.8c-2.1,0-5-0.8-7.1-4.7l-66.1-146.4l-0.1,138.2c0,1.4,0.3,1.7,1.7,1.7h14.5c3.5,0,5.6,2.1,5.6,5.6
						c0,3.5-2.1,5.6-5.6,5.6h-46.1c-3.5,0-5.6-2.1-5.6-5.6c0-3.5,2.1-5.6,5.6-5.6h17c1.4,0,1.7-0.3,1.7-1.7v-148
						c0-1.3-0.3-1.7-1.7-1.7h-17c-3.5,0-5.6-2.1-5.6-5.6c0-3.5,2.1-5.6,5.6-5.6h26.7c3.6,0,6.3,1.6,7.8,4.7l68,150.6
						c0.3,0.6,0.5,0.9,0.7,1.1c0.1-0.2,0.3-0.6,0.6-1.2l67.9-150.4c1.5-3.1,4.2-4.8,7.9-4.8h26.7c3.5,0,5.6,2.1,5.6,5.6
						c0,3.5-2.1,5.6-5.6,5.6h-17c-1.3,0-1.7,0.3-1.7,1.7v148c0,1.4,0.3,1.7,1.7,1.7h17c3.5,0,5.6,2.1,5.6,5.6c0,3.5-2.1,5.6-5.6,5.6
						H420.7z"/>
					<path class="st4" d="M260.4,37.4h17c2.4,0,3.7-1.2,3.7-3.7v-148c0-2.4-1.2-3.7-3.7-3.7h-17c-2.5,0-3.7-1.2-3.7-3.6
						c0-2.4,1.2-3.7,3.7-3.7h26.7c2.9,0,4.9,1.2,6.1,3.6l68,150.5c1.6,3.3,3.2,3.3,4.9,0L434-121.6c1.1-2.4,3.2-3.6,6.1-3.6h26.7
						c2.4,0,3.7,1.2,3.7,3.7c0,2.4-1.2,3.6-3.7,3.6h-17c-2.5,0-3.7,1.2-3.7,3.7v148c0,2.5,1.2,3.7,3.7,3.7h17c2.4,0,3.7,1.2,3.7,3.7
						c0,2.4-1.2,3.6-3.7,3.6h-46.1c-2.5,0-3.7-1.2-3.7-3.6c0-2.4,1.2-3.7,3.7-3.7h14.5c2.4,0,3.7-1.2,3.7-3.7v-142
						c0-1.6-0.3-2.3-1-1.9c-0.3,0-0.6,0.2-1,0.7L368.9,41c-1.3,2.5-3.1,3.7-5.3,3.7s-4-1.2-5.3-3.7l-68-150.5
						c-0.7-0.9-1.2-1.2-1.5-0.7c-0.3,0.4-0.4,1.1-0.4,1.9v142c0,2.5,1.2,3.7,3.7,3.7h14.5c2.4,0,3.7,1.2,3.7,3.7
						c0,2.4-1.2,3.6-3.7,3.6h-46.1c-2.5,0-3.7-1.2-3.7-3.6C256.8,38.7,258,37.4,260.4,37.4z"/>
				</g>
			</g>
		</g>
		<g>
			<g transform="translate(145.462599, 187.174764)">
				<g>
					<path class="st4" d="M562.7,46.7c-3.5,0-5.6-2.1-5.6-5.6c0-3.5,2.1-5.6,5.6-5.6h14.5c0.5,0,0.8-0.1,1-0.1
						c-0.1-0.1-17.6-45.8-17.6-45.8c-0.4-1-1.3-2.2-4-2.2h-68.9c-2.7,0-3.6,1.2-4,2.2l-17.2,44.8c-0.2,0.5-0.4,0.8-0.4,0.9
						c0,0,0.5,0,1,0h14.6c3.5,0,5.6,2.1,5.6,5.6c0,3.5-2.1,5.6-5.6,5.6h-46.2c-3.5,0-5.6-2.1-5.6-5.6c0-3.5,2.1-5.6,5.6-5.6h15.8
						c0.4,0,1.7,0,3.1-2.6l60.6-157.5c0.8-3.1,3.4-4.9,7.2-4.9c3.8,0,6.4,1.8,7.3,5.1L590,33.1c1,2.1,2.2,2.4,3,2.4h15.8
						c3.5,0,5.6,2.1,5.6,5.6c0,3.5-2.1,5.6-5.6,5.6H562.7z M490-23.8h64.1c0.6,0,1-0.1,1.2-0.1c-0.1-0.1-33.2-86.2-33.2-86.2
						l-32.8,85.4c-0.2,0.5-0.3,0.8-0.4,0.9c0,0,0,0,0.1,0C489.1-23.8,489.5-23.8,490-23.8z"/>
					<path class="st4" d="M523.5-111.9c-0.3-0.9-0.8-1.4-1.4-1.4c-0.7,0-1.2,0.5-1.5,1.4l-33.2,86.4c-1.3,2.5-0.4,3.7,2.6,3.7h64.1
						c2.9,0,3.8-1.2,2.7-3.7L523.5-111.9z M562.4-11.1c-1-2.3-2.9-3.4-5.8-3.4h-68.9c-3,0-4.9,1.2-5.8,3.4l-17.2,44.9
						c-1.3,2.5-0.5,3.7,2.4,3.7h14.6c2.4,0,3.6,1.2,3.6,3.6c0,2.5-1.2,3.7-3.6,3.7h-46.2c-2.4,0-3.6-1.2-3.6-3.7
						c0-2.4,1.2-3.6,3.6-3.6h15.8c1.9,0,3.6-1.2,4.9-3.7L516.7-124c0.6-2.4,2.4-3.7,5.3-3.7c2.9,0,4.7,1.2,5.4,3.7l60.7,157.8
						c1.1,2.5,2.8,3.7,4.9,3.7h15.8c2.4,0,3.7,1.2,3.7,3.6c0,2.5-1.2,3.7-3.7,3.7h-46.1c-2.5,0-3.7-1.2-3.7-3.7
						c0-2.4,1.2-3.6,3.7-3.6h14.5c2.7,0,3.6-1.2,2.5-3.7L562.4-11.1z"/>
				</g>
			</g>
		</g>
		<g>
			<g transform="translate(182.677597, 187.174764)">
				<g>
					<path class="st3" d="M590,46.7c-3.5,0-5.6-2.1-5.6-5.6c0-3.5,2.1-5.6,5.6-5.6h17c1.3,0,1.7-0.3,1.7-1.7v-148
						c0-1.3-0.3-1.7-1.7-1.7h-17c-3.5,0-5.6-2.1-5.6-5.6c0-3.5,2.1-5.6,5.6-5.6h74.1c13.4,0,24.5,4.3,33,12.7
						c8.4,8.4,12.7,19.1,12.7,31.7c0,16.1-6.6,28.1-19.5,35.9c21,6,31.7,21.9,31.7,47.3c0,13.4-4.2,24.6-12.6,33.2
						c-8.3,8.6-20.3,12.9-35.5,12.9H590z M621.6-38.3c-1.3,0-1.7,0.3-1.7,1.7v70.4c0,1.4,0.3,1.7,1.7,1.7h52.1
						c11.6,0,20.7-3.3,27.2-9.7c6.5-6.5,9.7-15.6,9.7-27.2c0-11.5-3.3-20.6-9.7-27.1c-6.5-6.5-15.6-9.7-27.2-9.7H621.6z M621.6-116
						c-1.3,0-1.7,0.3-1.7,1.7v63.1c0,1.4,0.3,1.7,1.7,1.7h43.7c9.7,0,17.5-3.2,23.8-9.7c6.2-6.5,9.4-14.6,9.4-24
						c0-9.6-3-17.2-9.2-23.4c-6.1-6.2-14.6-9.3-25.2-9.3H621.6z"/>
					<path class="st3" d="M684.6-46.1c23.5,4.5,35.2,20.1,35.2,46.6c0,13-4,23.6-12,31.9c-8,8.2-19.4,12.3-34.1,12.3H590
						c-2.5,0-3.7-1.2-3.7-3.7c0-2.4,1.2-3.6,3.7-3.6h17c2.4,0,3.7-1.2,3.7-3.7v-148c0-2.4-1.2-3.7-3.7-3.7h-17
						c-2.5,0-3.7-1.2-3.7-3.7c0-2.4,1.2-3.6,3.7-3.6h74.1c12.9,0,23.4,4,31.6,12.1c8.1,8.1,12.1,18.2,12.1,30.3
						C707.8-65.6,700-53.4,684.6-46.1z M617.9-51.2c0,2.5,1.2,3.7,3.7,3.7h43.7c10.2,0,18.6-3.4,25.2-10.3
						c6.6-6.9,9.9-15.3,9.9-25.4s-3.3-18.3-9.8-24.8c-6.5-6.6-15.4-9.9-26.6-9.9h-42.5c-2.5,0-3.7,1.2-3.7,3.7V-51.2z M617.9,33.8
						c0,2.5,1.2,3.7,3.7,3.7h52.1c12.2,0,21.7-3.4,28.6-10.3s10.3-16.4,10.3-28.6c0-12.1-3.4-21.6-10.3-28.5s-16.4-10.3-28.6-10.3
						h-52.1c-2.5,0-3.7,1.2-3.7,3.7V33.8z"/>
				</g>
			</g>
		</g>
		<g>
			<g transform="translate(216.194957, 187.174764)">
				<g>
					<path class="st3" d="M717,46.7c-3.5,0-5.6-2.1-5.6-5.6c0-3.5,2.1-5.6,5.6-5.6h17c1.3,0,1.7-0.3,1.7-1.7v-148
						c0-1.3-0.3-1.7-1.7-1.7h-17c-3.5,0-5.6-2.1-5.6-5.6c0-3.5,2.1-5.6,5.6-5.6h53.4c3.5,0,5.6,2.1,5.6,5.6c0,3.5-2.1,5.6-5.6,5.6
						h-21.8c-1.3,0-1.7,0.3-1.7,1.7v148c0,1.4,0.3,1.7,1.7,1.7h77.7c1.3,0,1.7-0.3,1.7-1.7V7.1c0-3.5,2.1-5.6,5.6-5.6
						c3.5,0,5.6,2.1,5.6,5.6v34c0,3.5-2.1,5.6-5.6,5.6H717z"/>
					<path class="st3" d="M717,44.7c-2.5,0-3.7-1.2-3.7-3.6c0-2.4,1.2-3.7,3.7-3.7h17c2.4,0,3.7-1.2,3.7-3.7v-148
						c0-2.4-1.2-3.7-3.7-3.7h-17c-2.5,0-3.7-1.2-3.7-3.6c0-2.4,1.2-3.7,3.7-3.7h53.4c2.4,0,3.7,1.2,3.7,3.7c0,2.4-1.2,3.6-3.7,3.6
						h-21.8c-2.5,0-3.7,1.2-3.7,3.7v148c0,2.5,1.2,3.7,3.7,3.7h77.7c2.4,0,3.7-1.2,3.7-3.7V7.1c0-2.4,1.2-3.7,3.6-3.7
						c2.4,0,3.7,1.2,3.7,3.7v34c0,2.5-1.2,3.7-3.6,3.7H717z"/>
				</g>
			</g>
		</g>
		<g>
			<g transform="translate(246.010713, 187.174764)">
				<g>
					<path class="st3" d="M909.3,46.7c-18.8,0-34.5-6.1-46.7-18.1c-12.2-12-18.4-27.8-18.4-46.9v-98.3c0-1.4-0.4-1.7-1.6-1.7h-17
						c-3.5,0-5.6-2.1-5.6-5.6c0-3.5,2.1-5.6,5.6-5.6h46.1c3.5,0,5.6,2.1,5.6,5.6c0,3.5-2.1,5.6-5.6,5.6h-14.6
						c-1.2,0-1.6,0.2-1.6,1.7v98.3c0,16.2,5.1,29.4,15.2,39.1c10.1,9.8,23.1,14.7,38.6,14.7c15.6,0,28.6-4.9,38.6-14.7
						C958,11,963.1-2.2,963.1-18.4v-98.3c0-1.4-0.4-1.7-1.6-1.7h-14.6c-3.5,0-5.6-2.1-5.6-5.6c0-3.5,2.1-5.6,5.6-5.6h46.2
						c3.5,0,5.6,2.1,5.6,5.6c0,3.5-2.1,5.6-5.6,5.6H976c-1.2,0-1.6,0.2-1.6,1.7v98.3c0,19.1-6.2,34.9-18.5,46.9
						C943.7,40.6,928,46.7,909.3,46.7z"/>
					<path class="st3" d="M825.6-127.6h46.1c2.4,0,3.7,1.2,3.7,3.7c0,2.4-1.2,3.6-3.7,3.6h-14.6c-2.4,0-3.6,1.2-3.6,3.7v98.3
						c0,16.8,5.3,30.3,15.8,40.5c10.5,10.2,23.9,15.3,40,15.3c16.2,0,29.5-5.1,40-15.3c10.5-10.2,15.8-23.7,15.8-40.5v-98.3
						c0-2.4-1.2-3.7-3.6-3.7h-14.6c-2.5,0-3.7-1.2-3.7-3.6c0-2.4,1.2-3.7,3.7-3.7h46.2c2.4,0,3.6,1.2,3.6,3.7c0,2.4-1.2,3.6-3.6,3.6
						H976c-2.4,0-3.6,1.2-3.6,3.7v98.3c0,18.6-6,33.8-17.9,45.5c-11.9,11.7-27,17.6-45.3,17.6c-18.3,0-33.4-5.9-45.3-17.6
						c-11.9-11.7-17.8-26.9-17.8-45.5v-98.3c0-2.4-1.2-3.7-3.6-3.7h-17c-2.5,0-3.7-1.2-3.7-3.6C821.9-126.3,823.1-127.6,825.6-127.6
						z"/>
				</g>
			</g>
		</g>
	</g>
</g>
</svg>
