<svg width="305" height="58" viewBox="0 0 305 58" fill="none" xmlns="http://www.w3.org/2000/svg">
<path fill-rule="evenodd" clip-rule="evenodd" d="M277.7 39.9194C277.4 40.6194 277.2 41.3194 276.9 41.8194C276.6 42.5194 276.2 43.0194 275.8 43.3194C275.6 43.4194 275.4 43.5194 275.2 43.6194C275 43.7194 274.8 43.8194 274.5 43.8194C274.2 43.9194 273.7 43.9194 273.2 43.9194C272.8 43.9194 272.4 43.9194 271.9 43.9194C272.2 43.2194 272.4 42.5194 272.7 42.0194C273 41.3194 273.4 40.8194 273.8 40.5194C274 40.4194 274.2 40.3194 274.4 40.2194C274.6 40.1194 274.8 40.0194 275.1 40.0194C275.7 39.9194 276.5 39.9194 277.7 39.9194ZM283.4 39.9194C283.1 40.6194 282.9 41.3194 282.6 41.8194C282.3 42.5194 281.9 43.0194 281.5 43.3194C281.3 43.4194 281.1 43.5194 280.9 43.6194C280.7 43.7194 280.5 43.8194 280.2 43.8194C279.8 43.9194 279.4 43.9194 278.9 43.9194C278.5 43.9194 278.1 43.9194 277.6 43.9194C277.9 43.2194 278.1 42.5194 278.4 42.0194C278.7 41.3194 279.1 40.8194 279.5 40.5194C279.7 40.4194 279.9 40.3194 280.1 40.2194C280.3 40.1194 280.5 40.0194 280.8 40.0194C281.5 39.9194 282.3 39.9194 283.4 39.9194ZM289.2 39.9194C288.9 40.6194 288.7 41.3194 288.4 41.8194C288.1 42.5194 287.7 43.0194 287.3 43.3194C287.1 43.4194 286.9 43.5194 286.7 43.6194C286.5 43.7194 286.3 43.8194 286 43.8194C285.7 43.9194 285.2 43.9194 284.7 43.9194C284.3 43.9194 283.9 43.9194 283.4 43.9194C283.7 43.2194 283.9 42.5194 284.2 42.0194C284.5 41.3194 284.9 40.8194 285.3 40.5194C285.5 40.4194 285.7 40.3194 285.9 40.2194C286.1 40.1194 286.3 40.0194 286.6 40.0194C287.2 39.9194 288 39.9194 289.2 39.9194ZM283.4 49.4194C283.1 48.7194 282.9 48.0194 282.6 47.5194C282.3 46.8194 281.9 46.3194 281.5 46.0194C281.3 45.9194 281.1 45.8194 280.9 45.7194C280.7 45.6194 280.5 45.5194 280.2 45.5194C279.8 45.4194 279.4 45.4194 278.9 45.4194C278.5 45.4194 278.1 45.4194 277.6 45.4194C277.9 46.1194 278.1 46.8194 278.4 47.3194C278.7 48.0194 279.1 48.5194 279.5 48.8194C279.7 48.9194 279.9 49.0194 280.1 49.1194C280.3 49.2194 280.5 49.3194 280.8 49.3194C281.5 49.4194 282.3 49.4194 283.4 49.4194ZM289.2 49.4194C288.9 48.7194 288.7 48.0194 288.4 47.5194C288.1 46.8194 287.7 46.3194 287.3 46.0194C287.1 45.9194 286.9 45.8194 286.7 45.7194C286.5 45.6194 286.3 45.5194 286 45.5194C285.7 45.4194 285.2 45.4194 284.7 45.4194C284.3 45.4194 283.9 45.4194 283.4 45.4194C283.7 46.1194 283.9 46.8194 284.2 47.3194C284.5 48.0194 284.9 48.5194 285.3 48.8194C285.5 48.9194 285.7 49.0194 285.9 49.1194C286.1 49.2194 286.3 49.3194 286.6 49.3194C287.2 49.4194 288 49.4194 289.2 49.4194ZM271.8 45.3194C272.1 46.0194 272.3 46.7194 272.6 47.2194C272.9 47.9194 273.3 48.4194 273.7 48.7194C273.9 48.8194 274.1 48.9194 274.3 49.0194C274.5 49.1194 274.7 49.2194 275 49.2194C275.6 49.3194 276.5 49.3194 277.6 49.3194C277.3 48.6194 277.1 47.9194 276.8 47.4194C276.5 46.7194 276.1 46.2194 275.7 45.9194C275.5 45.8194 275.3 45.7194 275.1 45.6194C274.9 45.5194 274.7 45.4194 274.4 45.4194C274.1 45.3194 273.6 45.3194 273.1 45.3194C272.7 45.4194 272.3 45.4194 271.8 45.3194ZM289.6 42.4194C290 41.7194 290.3 40.8194 290.7 39.8194H298.5C298.9 39.8194 299.2 39.5194 299.2 39.1194C299.2 38.7194 298.9 38.4194 298.5 38.4194H289.3C288.9 38.4194 288.5 38.4194 288.2 38.4194H287.5C287.4 38.4194 287.4 38.4194 287.3 38.4194C287 38.4194 286.7 38.5194 286.4 38.5194C286 38.6194 285.7 38.7194 285.4 38.8194L285.5 38.4194H283.6C282.3 38.4194 281.4 38.4194 280.6 38.5194C280.2 38.6194 279.9 38.7194 279.6 38.8194L279.7 38.4194H277.8C276.5 38.4194 275.6 38.4194 274.8 38.5194C271.8 39.0194 270.8 41.9194 269.9 43.8194H262.5C262.1 43.8194 261.8 44.1194 261.8 44.5194C261.8 44.9194 262.1 45.2194 262.5 45.2194H269.9C270.8 47.2194 271.8 50.0194 274.8 50.5194C275.6 50.6194 276.5 50.6194 277.8 50.6194H279.7L279.6 50.2194C279.9 50.3194 280.2 50.4194 280.6 50.5194C281.4 50.6194 282.3 50.6194 283.6 50.6194H285.5L285.4 50.2194C285.7 50.3194 286 50.4194 286.4 50.5194C286.7 50.6194 287 50.6194 287.3 50.6194C287.4 50.6194 287.4 50.6194 287.5 50.6194H288.2C288.5 50.6194 288.9 50.6194 289.3 50.6194H298.5C298.9 50.6194 299.2 50.3194 299.2 49.9194C299.2 49.5194 298.9 49.2194 298.5 49.2194H290.7C290.3 48.2194 290 47.4194 289.6 46.6194C289.3 46.0194 289 45.5194 288.6 45.1194H295.2C295.6 45.1194 295.9 44.8194 295.9 44.4194C295.9 44.0194 295.6 43.7194 295.2 43.7194H288.6C289 43.6194 289.3 43.1194 289.6 42.4194Z" fill="#FECF67"/>
<path fill-rule="evenodd" clip-rule="evenodd" d="M277.7 7.61938C277.4 8.31938 277.2 9.01938 276.9 9.51938C276.6 10.2194 276.2 10.7194 275.8 11.0194C275.6 11.1194 275.4 11.2194 275.2 11.3194C275 11.4194 274.8 11.5194 274.5 11.5194C274.2 11.6194 273.7 11.6194 273.2 11.6194C272.8 11.6194 272.4 11.6194 271.9 11.6194C272.2 10.9194 272.4 10.2194 272.7 9.71938C273 9.01938 273.4 8.51938 273.8 8.21938C274 8.11938 274.2 8.01938 274.4 7.91938C274.6 7.81938 274.8 7.71938 275.1 7.71938C275.7 7.61938 276.5 7.61938 277.7 7.61938ZM283.4 7.61938C283.1 8.31938 282.9 9.01938 282.6 9.51938C282.3 10.2194 281.9 10.7194 281.5 11.0194C281.3 11.1194 281.1 11.2194 280.9 11.3194C280.7 11.4194 280.5 11.5194 280.2 11.5194C279.8 11.6194 279.4 11.6194 278.9 11.6194C278.5 11.6194 278.1 11.6194 277.6 11.6194C277.9 10.9194 278.1 10.2194 278.4 9.71938C278.7 9.01938 279.1 8.51938 279.5 8.21938C279.7 8.11938 279.9 8.01938 280.1 7.91938C280.3 7.81938 280.5 7.71938 280.8 7.71938C281.5 7.61938 282.3 7.61938 283.4 7.61938ZM289.2 7.61938C288.9 8.31938 288.7 9.01938 288.4 9.51938C288.1 10.2194 287.7 10.7194 287.3 11.0194C287.1 11.1194 286.9 11.2194 286.7 11.3194C286.5 11.4194 286.3 11.5194 286 11.5194C285.7 11.6194 285.2 11.6194 284.7 11.6194C284.3 11.6194 283.9 11.6194 283.4 11.6194C283.7 10.9194 283.9 10.2194 284.2 9.71938C284.5 9.01938 284.9 8.51938 285.3 8.21938C285.5 8.11938 285.7 8.01938 285.9 7.91938C286.1 7.81938 286.3 7.71938 286.6 7.71938C287.2 7.61938 288 7.61938 289.2 7.61938ZM283.4 17.1194C283.1 16.4194 282.9 15.7194 282.6 15.2194C282.3 14.5194 281.9 14.0194 281.5 13.7194C281.3 13.6194 281.1 13.5194 280.9 13.4194C280.7 13.3194 280.5 13.2194 280.2 13.2194C279.8 13.1194 279.4 13.1194 278.9 13.1194C278.5 13.1194 278.1 13.1194 277.6 13.1194C277.9 13.8194 278.1 14.5194 278.4 15.0194C278.7 15.7194 279.1 16.2194 279.5 16.5194C279.7 16.6194 279.9 16.7194 280.1 16.8194C280.3 16.9194 280.5 17.0194 280.8 17.0194C281.5 17.1194 282.3 17.1194 283.4 17.1194ZM289.2 17.1194C288.9 16.4194 288.7 15.7194 288.4 15.2194C288.1 14.5194 287.7 14.0194 287.3 13.7194C287.1 13.6194 286.9 13.5194 286.7 13.4194C286.5 13.3194 286.3 13.2194 286 13.2194C285.7 13.1194 285.2 13.1194 284.7 13.1194C284.3 13.1194 283.9 13.1194 283.4 13.1194C283.7 13.8194 283.9 14.5194 284.2 15.0194C284.5 15.7194 284.9 16.2194 285.3 16.5194C285.5 16.6194 285.7 16.7194 285.9 16.8194C286.1 16.9194 286.3 17.0194 286.6 17.0194C287.2 17.1194 288 17.1194 289.2 17.1194ZM271.8 13.1194C272.1 13.8194 272.3 14.5194 272.6 15.0194C272.9 15.7194 273.3 16.2194 273.7 16.5194C273.9 16.6194 274.1 16.7194 274.3 16.8194C274.5 16.9194 274.7 17.0194 275 17.0194C275.6 17.1194 276.5 17.1194 277.6 17.1194C277.3 16.4194 277.1 15.7194 276.8 15.2194C276.5 14.5194 276.1 14.0194 275.7 13.7194C275.5 13.6194 275.3 13.5194 275.1 13.4194C274.9 13.3194 274.7 13.2194 274.4 13.2194C274.1 13.1194 273.6 13.1194 273.1 13.1194C272.7 13.1194 272.3 13.1194 271.8 13.1194ZM289.6 10.2194C290 9.51938 290.3 8.61938 290.7 7.61938H298.5C298.9 7.61938 299.2 7.31938 299.2 6.91938C299.2 6.51938 298.9 6.21938 298.5 6.21938H289.3C288.9 6.21938 288.5 6.21938 288.2 6.21938H287.5C287.4 6.21938 287.4 6.21938 287.3 6.21938C287 6.21938 286.7 6.31938 286.4 6.31938C286 6.41938 285.7 6.51938 285.4 6.61938L285.5 6.21938H283.6C282.3 6.21938 281.4 6.21938 280.6 6.31938C280.2 6.41938 279.9 6.51938 279.6 6.61938L279.7 6.21938H277.8C276.5 6.21938 275.6 6.21938 274.8 6.31938C271.8 6.81938 270.8 9.61938 269.9 11.6194H262.5C262.1 11.6194 261.8 11.9194 261.8 12.3194C261.8 12.7194 262.1 13.0194 262.5 13.0194H269.9C270.8 15.0194 271.8 17.8194 274.8 18.3194C275.6 18.4194 276.5 18.4194 277.8 18.4194H279.7L279.6 18.0194C279.9 18.1194 280.2 18.2194 280.6 18.3194C281.4 18.4194 282.3 18.4194 283.6 18.4194H285.5L285.4 18.0194C285.7 18.1194 286 18.2194 286.4 18.3194C286.7 18.4194 287 18.4194 287.3 18.4194C287.4 18.4194 287.4 18.4194 287.5 18.4194H288.2C288.5 18.4194 288.9 18.4194 289.3 18.4194H298.5C298.9 18.4194 299.2 18.1194 299.2 17.7194C299.2 17.3194 298.9 17.0194 298.5 17.0194H290.7C290.3 16.0194 290 15.1194 289.6 14.4194C289.3 13.8194 289 13.3194 288.6 12.9194H295.2C295.6 12.9194 295.9 12.6194 295.9 12.2194C295.9 11.8194 295.6 11.5194 295.2 11.5194H288.6C289 11.2194 289.3 10.8194 289.6 10.2194Z" fill="#FECF67"/>
<path fill-rule="evenodd" clip-rule="evenodd" d="M284.1 31.1194C283.8 30.6194 283.6 29.9194 283.3 29.2194C284.4 29.2194 285.3 29.2194 285.9 29.3194C286.2 29.4194 286.4 29.4194 286.6 29.5194C286.8 29.6194 287 29.7194 287.2 29.8194C287.6 30.1194 288 30.6194 288.3 31.3194C288.6 31.8194 288.8 32.4194 289.1 33.2194C288 33.2194 287.1 33.2194 286.5 33.1194C286.2 33.0194 286 33.0194 285.8 32.9194C285.6 32.8194 285.3 32.7194 285.2 32.6194C284.9 32.2194 284.5 31.8194 284.1 31.1194ZM277.6 29.2194C278.7 29.2194 279.6 29.2194 280.2 29.3194C280.5 29.4194 280.7 29.4194 280.9 29.5194C281.1 29.6194 281.4 29.7194 281.5 29.8194C281.9 30.1194 282.3 30.6194 282.6 31.3194C282.9 31.8194 283.1 32.4194 283.4 33.2194C282.3 33.2194 281.4 33.2194 280.8 33.1194C280.5 33.0194 280.3 33.0194 280.1 32.9194C279.9 32.8194 279.7 32.7194 279.5 32.6194C279.1 32.3194 278.7 31.8194 278.4 31.1194C278.1 30.6194 277.8 29.9194 277.6 29.2194ZM276.9 25.6194C276.6 26.3194 276.2 26.8194 275.8 27.1194C275.6 27.2194 275.4 27.3194 275.2 27.4194C275 27.5194 274.8 27.6194 274.5 27.6194C274.2 27.7194 273.7 27.7194 273.2 27.7194C272.8 27.7194 272.4 27.7194 271.9 27.7194C272.2 27.0194 272.4 26.3194 272.7 25.8194C273 25.1194 273.4 24.6194 273.8 24.3194C274 24.2194 274.2 24.1194 274.4 24.0194C274.6 23.9194 274.8 23.8194 275.1 23.8194C275.7 23.7194 276.6 23.7194 277.7 23.7194C277.4 24.5194 277.1 25.1194 276.9 25.6194ZM289.1 27.7194C289.4 27.0194 289.6 26.3194 289.9 25.8194C290.2 25.1194 290.6 24.6194 291 24.3194C291.2 24.2194 291.4 24.1194 291.6 24.0194C291.8 23.9194 292 23.8194 292.3 23.8194C292.9 23.7194 293.8 23.7194 294.9 23.7194C294.6 24.4194 294.3 25.1194 294.1 25.6194C293.8 26.3194 293.4 26.8194 293 27.1194C292.8 27.2194 292.6 27.3194 292.4 27.4194C292.2 27.5194 292 27.6194 291.7 27.6194C291.3 27.7194 290.9 27.7194 290.4 27.7194C290 27.7194 289.5 27.7194 289.1 27.7194ZM284.1 25.8194C284.4 25.1194 284.8 24.6194 285.2 24.3194C285.4 24.2194 285.6 24.1194 285.8 24.0194C286 23.9194 286.2 23.8194 286.5 23.8194C287.1 23.7194 288 23.7194 289.1 23.7194C288.8 24.4194 288.6 25.1194 288.3 25.6194C288 26.3194 287.6 26.8194 287.2 27.1194C287 27.2194 286.8 27.3194 286.6 27.4194C286.4 27.5194 286.2 27.6194 285.9 27.6194C285.6 27.7194 285.1 27.7194 284.6 27.7194C284.2 27.7194 283.8 27.7194 283.3 27.7194C283.6 27.0194 283.8 26.4194 284.1 25.8194ZM289.9 31.1194C289.6 30.6194 289.4 29.9194 289.1 29.2194C290.2 29.2194 291.1 29.2194 291.7 29.3194C292 29.4194 292.2 29.4194 292.4 29.5194C292.6 29.6194 292.9 29.7194 293 29.8194C293.4 30.1194 293.8 30.6194 294.1 31.3194C294.4 31.8194 294.6 32.4194 294.9 33.2194C293.8 33.2194 292.9 33.2194 292.3 33.1194C292 33.0194 291.8 33.0194 291.6 32.9194C291.4 32.8194 291.2 32.7194 291 32.6194C290.6 32.3194 290.2 31.8194 289.9 31.1194ZM277.6 27.7194C277.9 27.0194 278.1 26.3194 278.4 25.8194C278.7 25.1194 279.1 24.6194 279.5 24.3194C279.7 24.2194 279.9 24.1194 280.1 24.0194C280.3 23.9194 280.5 23.8194 280.8 23.8194C281.4 23.7194 282.3 23.7194 283.4 23.7194C283.1 24.4194 282.9 25.1194 282.6 25.6194C282.3 26.3194 281.9 26.8194 281.5 27.1194C281.3 27.2194 281.1 27.3194 280.9 27.4194C280.7 27.5194 280.5 27.6194 280.2 27.6194C279.8 27.7194 279.4 27.7194 278.9 27.7194C278.5 27.7194 278.1 27.7194 277.6 27.7194ZM270.3 29.2194C270.7 30.2194 271 31.0194 271.4 31.8194C271.9 32.7194 272.3 33.3194 272.9 33.8194C273.1 34.0194 273.4 34.2194 273.8 34.3194C274.1 34.4194 274.4 34.5194 274.8 34.6194C275.6 34.7194 276.5 34.7194 277.8 34.7194H279.7L279.6 34.3194C279.9 34.4194 280.2 34.5194 280.6 34.6194C281.4 34.7194 282.3 34.7194 283.6 34.7194H285.5L285.4 34.3194C285.7 34.4194 286 34.5194 286.4 34.6194C287.2 34.7194 288.1 34.7194 289.4 34.7194H291.3L291.1 34.3194C291.4 34.4194 291.7 34.5194 292.1 34.6194C292.4 34.7194 292.7 34.7194 293 34.7194C293.1 34.7194 293.1 34.7194 293.2 34.7194H293.9C294.3 34.7194 294.7 34.7194 295.1 34.7194H304.3C304.7 34.7194 305 34.4194 305 34.0194C305 33.6194 304.7 33.3194 304.3 33.3194H296.5C296.1 32.3194 295.8 31.4194 295.4 30.7194C295.1 30.1194 294.8 29.6194 294.4 29.2194H301C301.4 29.2194 301.7 28.9194 301.7 28.5194C301.7 28.1194 301.4 27.8194 301 27.8194H294.4C294.8 27.4194 295.1 26.9194 295.4 26.3194C295.8 25.6194 296.1 24.7194 296.5 23.7194H304.3C304.7 23.7194 305 23.4194 305 23.0194C305 22.6194 304.7 22.3194 304.3 22.3194H295.1C294.7 22.3194 294.3 22.3194 294 22.3194H293.3C293.2 22.3194 293.2 22.3194 293.1 22.3194C292.8 22.3194 292.5 22.4194 292.2 22.4194C291.8 22.5194 291.5 22.6194 291.2 22.7194L291.4 22.3194H289.5C288.2 22.3194 287.3 22.3194 286.5 22.4194C286.1 22.5194 285.8 22.6194 285.5 22.7194L285.6 22.3194H283.7C282.4 22.3194 281.5 22.3194 280.7 22.4194C280.3 22.5194 280 22.6194 279.7 22.7194L279.8 22.3194H277.9C276.6 22.3194 275.7 22.3194 274.9 22.4194C274.5 22.5194 274.2 22.6194 273.9 22.7194C273.5 22.9194 273.2 23.0194 273 23.2194C272.4 23.7194 271.9 24.3194 271.5 25.2194C271.1 25.9194 270.8 26.8194 270.4 27.7194H263.1C263.1 27.9194 263.1 28.2194 263.1 28.4194C263.1 28.6194 263.1 28.9194 263.1 29.1194L270.3 29.2194ZM272.4 29.2194C273.2 29.2194 273.9 29.2194 274.4 29.3194C274.7 29.4194 274.9 29.4194 275.1 29.5194C275.3 29.6194 275.6 29.7194 275.7 29.8194C276.1 30.1194 276.5 30.6194 276.8 31.3194C277.1 31.8194 277.3 32.4194 277.6 33.2194C276.5 33.2194 275.6 33.2194 275 33.1194C274.7 33.0194 274.5 33.0194 274.3 32.9194C274.1 32.8194 273.8 32.7194 273.7 32.6194C273.3 32.3194 272.9 31.8194 272.6 31.1194C272.3 30.6194 272.1 29.9194 271.8 29.2194H272.4Z" fill="#FECF67"/>
<path d="M260 0.819382C259.9 0.419382 260.2 0.0193815 260.6 0.0193815C261 -0.0806185 261.4 0.219381 261.4 0.619381C262.9 9.81938 263.7 19.2194 263.7 28.5194C263.7 37.8194 262.9 47.1194 261.4 56.4194C261.3 56.8194 261 57.1194 260.6 57.0194C260.2 56.9194 259.9 56.6194 260 56.2194C261.5 47.1194 262.2 37.8194 262.2 28.5194C262.2 19.2194 261.5 10.0194 260 0.819382Z" fill="#FECF67"/>
<path d="M5 43.8195C7.8 45.7195 11 46.6195 14.4 46.6195C17.8 46.6195 20.4 45.8195 22.3 44.3195C24.2 42.8195 25.1 40.8195 25.1 38.4195C25.1 37.1195 24.7 35.9195 23.9 35.0195C23.1 34.0195 22.1 33.3195 20.9 32.7195C19.5 32.1195 16.9 31.3195 13 30.2195C9.1 29.1195 6.4 28.2195 5 27.5195C3.5 26.8195 2.4 25.9195 1.5 24.8195C0.7 23.7195 0.3 22.4195 0.3 20.9195C0.3 18.1195 1.2 15.8195 3.1 14.1195C5 12.4195 7.9 11.6195 12 11.6195C16 11.6195 19.7 13.0195 23.1 15.9195C23.6 16.3195 23.9 16.2195 23.9 15.4195V12.9195C23.9 12.4195 24.2 12.1195 24.7 12.1195C25.2 12.1195 25.5 12.4195 25.5 12.9195V22.5195C25.5 23.0195 25.2 23.3195 24.7 23.3195C24.2 23.3195 23.9 23.0195 23.9 22.5195V19.0195C22 16.9195 19.7 15.2195 17 14.1195C15.5 13.5195 13.9 13.2195 12 13.2195C8.6 13.2195 6 13.9195 4.3 15.3195C2.6 16.7195 1.8 18.5195 1.8 20.5195C1.8 21.8195 2.2 23.0195 3 23.9195C3.8 24.9195 4.8 25.6195 6 26.2195C7.4 26.8195 10 27.6195 13.9 28.7195C17.8 29.8195 20.5 30.7195 21.9 31.4195C23.4 32.1195 24.5 33.0195 25.3 34.2195C26.1 35.3195 26.5 36.7195 26.5 38.2195C26.5 41.2195 25.4 43.7195 23.3 45.5195C21.2 47.3195 18 48.2195 13.8 48.2195C9.6 48.2195 5.8 46.8195 2.4 43.9195C1.9 43.5195 1.6 43.6195 1.6 44.4195V46.9195C1.6 47.4195 1.3 47.7195 0.8 47.7195C0.3 47.7195 0 47.4195 0 46.9195V37.3195C0 36.8195 0.3 36.5195 0.8 36.5195C1.3 36.5195 1.6 36.8195 1.6 37.3195V41.1195C2.7 42.0195 3.8 43.0195 5 43.8195Z" fill="#318CE7"/>
<path d="M56.7 35.9195C56.5 35.4195 56.1 35.2195 55.5 35.2195H41.1C40.5 35.2195 40.1 35.4195 39.9 35.9195L36.3 45.3195C36 45.8195 36.2 46.1195 36.8 46.1195H39.8C40.3 46.1195 40.6 46.4195 40.6 46.9195C40.6 47.4195 40.3 47.7195 39.8 47.7195H30.2C29.7 47.7195 29.4 47.4195 29.4 46.9195C29.4 46.4195 29.7 46.1195 30.2 46.1195H33.5C33.9 46.1195 34.2 45.8195 34.5 45.3195L47.2 12.3195C47.3 11.8195 47.7 11.5195 48.3 11.5195C48.9 11.5195 49.3 11.8195 49.4 12.3195L62.1 45.3195C62.3 45.8195 62.7 46.1195 63.1 46.1195H66.4C66.9 46.1195 67.2 46.4195 67.2 46.9195C67.2 47.4195 66.9 47.7195 66.4 47.7195H56.8C56.3 47.7195 56 47.4195 56 46.9195C56 46.4195 56.3 46.1195 56.8 46.1195H59.8C60.4 46.1195 60.5 45.8195 60.3 45.3195L56.7 35.9195ZM48.6 14.9195C48.5 14.7195 48.4 14.6195 48.3 14.6195C48.2 14.6195 48.1 14.7195 48 14.9195L41.1 33.0195C40.8 33.5195 41 33.8195 41.7 33.8195H55.1C55.7 33.8195 55.9 33.5195 55.7 33.0195L48.6 14.9195Z" fill="#318CE7"/>
<path d="M70.3 46.1195H73.8C74.3 46.1195 74.6 45.8195 74.6 45.3195V14.4195C74.6 13.9195 74.3 13.6195 73.8 13.6195H70.3C69.8 13.6195 69.5 13.3195 69.5 12.8195C69.5 12.3195 69.8 12.0195 70.3 12.0195H75.9C76.5 12.0195 76.9 12.3195 77.2 12.8195L91.4 44.2195C91.7 44.9195 92.1 44.9195 92.4 44.2195L106.5 12.8195C106.7 12.3195 107.2 12.0195 107.8 12.0195H113.4C113.9 12.0195 114.2 12.3195 114.2 12.8195C114.2 13.3195 113.9 13.6195 113.4 13.6195H109.9C109.4 13.6195 109.1 13.9195 109.1 14.4195V45.3195C109.1 45.8195 109.4 46.1195 109.9 46.1195H113.4C113.9 46.1195 114.2 46.4195 114.2 46.9195C114.2 47.4195 113.9 47.7195 113.4 47.7195H103.8C103.3 47.7195 103 47.4195 103 46.9195C103 46.4195 103.3 46.1195 103.8 46.1195H106.8C107.3 46.1195 107.6 45.8195 107.6 45.3195V15.6195C107.6 15.3195 107.5 15.1195 107.4 15.2195C107.3 15.2195 107.3 15.3195 107.2 15.4195L92.9 46.8195C92.6 47.3195 92.3 47.6195 91.8 47.6195C91.3 47.6195 91 47.3195 90.7 46.8195L76.5 15.4195C76.4 15.2195 76.3 15.1195 76.2 15.2195C76.1 15.3195 76.1 15.4195 76.1 15.6195V45.3195C76.1 45.8195 76.4 46.1195 76.9 46.1195H79.9C80.4 46.1195 80.7 46.4195 80.7 46.9195C80.7 47.4195 80.4 47.7195 79.9 47.7195H70.3C69.8 47.7195 69.5 47.4195 69.5 46.9195C69.5 46.3195 69.8 46.1195 70.3 46.1195Z" fill="#318CE7"/>
<path d="M143.7 35.9195C143.5 35.4195 143.1 35.2195 142.5 35.2195H128.1C127.5 35.2195 127.1 35.4195 126.9 35.9195L123.3 45.3195C123 45.8195 123.2 46.1195 123.8 46.1195H126.8C127.3 46.1195 127.6 46.4195 127.6 46.9195C127.6 47.4195 127.3 47.7195 126.8 47.7195H117.2C116.7 47.7195 116.4 47.4195 116.4 46.9195C116.4 46.4195 116.7 46.1195 117.2 46.1195H120.5C120.9 46.1195 121.2 45.8195 121.5 45.3195L134.2 12.3195C134.3 11.8195 134.7 11.5195 135.3 11.5195C135.9 11.5195 136.3 11.8195 136.4 12.3195L149.1 45.3195C149.3 45.8195 149.7 46.1195 150.1 46.1195H153.4C153.9 46.1195 154.2 46.4195 154.2 46.9195C154.2 47.4195 153.9 47.7195 153.4 47.7195H143.8C143.3 47.7195 143 47.4195 143 46.9195C143 46.4195 143.3 46.1195 143.8 46.1195H146.8C147.4 46.1195 147.5 45.8195 147.3 45.3195L143.7 35.9195ZM135.6 14.9195C135.5 14.7195 135.4 14.6195 135.3 14.6195C135.2 14.6195 135.1 14.7195 135 14.9195L128.1 33.0195C127.8 33.5195 128 33.8195 128.7 33.8195H142.1C142.7 33.8195 142.9 33.5195 142.7 33.0195L135.6 14.9195Z" fill="#318CE7"/>
<path d="M177 28.6195C181.9 29.5195 184.4 32.8195 184.4 38.3195C184.4 41.0195 183.6 43.2195 181.9 44.9195C180.2 46.6195 177.9 47.5195 174.8 47.5195H157.3C156.8 47.5195 156.5 47.2195 156.5 46.7195C156.5 46.2195 156.8 45.9195 157.3 45.9195H160.8C161.3 45.9195 161.6 45.6195 161.6 45.1195V14.4195C161.6 13.9195 161.3 13.6195 160.8 13.6195H157.3C156.8 13.6195 156.5 13.3195 156.5 12.8195C156.5 12.3195 156.8 12.0195 157.3 12.0195H172.8C175.5 12.0195 177.7 12.8195 179.4 14.5195C181.1 16.2195 181.9 18.3195 181.9 20.8195C181.9 24.5195 180.3 27.1195 177 28.6195ZM163.1 27.5195C163.1 28.0195 163.4 28.3195 163.9 28.3195H173C175.1 28.3195 176.9 27.6195 178.3 26.1195C179.7 24.7195 180.4 22.9195 180.4 20.8195C180.4 18.7195 179.7 17.0195 178.3 15.6195C176.9 14.2195 175.1 13.5195 172.7 13.5195H163.8C163.3 13.5195 163 13.8195 163 14.3195V27.5195H163.1ZM163.1 45.3195C163.1 45.8195 163.4 46.1195 163.9 46.1195H174.8C177.3 46.1195 179.3 45.4195 180.8 43.9195C182.2 42.5195 183 40.5195 183 37.9195C183 35.4195 182.3 33.4195 180.8 31.9195C179.4 30.5195 177.4 29.7195 174.8 29.7195H163.9C163.4 29.7195 163.1 30.0195 163.1 30.5195V45.3195Z" fill="#FECF67"/>
<path d="M190 46.8195C190 46.3195 190.3 46.0195 190.8 46.0195H194.3C194.8 46.0195 195.1 45.7195 195.1 45.2195V14.4195C195.1 13.9195 194.8 13.6195 194.3 13.6195H190.8C190.3 13.6195 190 13.3195 190 12.8195C190 12.3195 190.3 12.0195 190.8 12.0195H202C202.5 12.0195 202.8 12.3195 202.8 12.8195C202.8 13.3195 202.5 13.6195 202 13.6195H197.4C196.9 13.6195 196.6 13.9195 196.6 14.4195V45.3195C196.6 45.8195 196.9 46.1195 197.4 46.1195H213.6C214.1 46.1195 214.4 45.8195 214.4 45.3195V39.7195C214.4 39.2195 214.7 38.9195 215.2 38.9195C215.7 38.9195 216 39.2195 216 39.7195V46.8195C216 47.3195 215.7 47.6195 215.2 47.6195H190.9C190.3 47.6195 190 47.3195 190 46.8195Z" fill="#FECF67"/>
<path d="M219.7 12.1195H229.3C229.8 12.1195 230.1 12.4195 230.1 12.9195C230.1 13.4195 229.8 13.7195 229.3 13.7195H226.3C225.8 13.7195 225.5 14.0195 225.5 14.5195V35.0195C225.5 38.5195 226.6 41.3195 228.8 43.5195C231 45.6195 233.8 46.7195 237.2 46.7195C240.6 46.7195 243.4 45.6195 245.6 43.5195C247.8 41.4195 248.9 38.5195 248.9 35.0195V14.4195C248.9 13.9195 248.6 13.6195 248.1 13.6195H245.1C244.6 13.6195 244.3 13.3195 244.3 12.8195C244.3 12.3195 244.6 12.0195 245.1 12.0195H254.7C255.2 12.0195 255.5 12.3195 255.5 12.8195C255.5 13.3195 255.2 13.6195 254.7 13.6195H251.2C250.7 13.6195 250.4 13.9195 250.4 14.4195V34.9195C250.4 38.8195 249.2 42.0195 246.7 44.4195C244.2 46.9195 241.1 48.1195 237.2 48.1195C233.4 48.1195 230.2 46.9195 227.7 44.4195C225.2 41.9195 224 38.8195 224 34.9195V14.4195C224 13.9195 223.7 13.6195 223.2 13.6195H219.7C219.2 13.6195 218.9 13.3195 218.9 12.8195C218.9 12.3195 219.2 12.1195 219.7 12.1195Z" fill="#FECF67"/>
</svg>
